<svg width="520" height="360" viewBox="0 0 520 360" fill="none" xmlns="http://www.w3.org/2000/svg">
  <rect width="520" height="360" rx="28" fill="url(#paint0_linear)"/>
  <rect x="42" y="54" width="190" height="250" rx="18" fill="white" fill-opacity="0.85"/>
  <rect x="70" y="86" width="136" height="16" rx="8" fill="#0EA5A5"/>
  <rect x="70" y="116" width="120" height="10" rx="5" fill="#94A3B8"/>
  <rect x="70" y="146" width="136" height="10" rx="5" fill="#CBD5F5"/>
  <rect x="70" y="172" width="102" height="10" rx="5" fill="#CBD5F5"/>
  <rect x="70" y="212" width="136" height="10" rx="5" fill="#E2E8F0"/>
  <rect x="70" y="238" width="120" height="10" rx="5" fill="#E2E8F0"/>
  <rect x="268" y="90" width="210" height="214" rx="22" fill="white" fill-opacity="0.9"/>
  <rect x="296" y="120" width="154" height="14" rx="7" fill="#2563EB"/>
  <rect x="296" y="146" width="124" height="10" rx="5" fill="#94A3B8"/>
  <rect x="296" y="174" width="162" height="10" rx="5" fill="#CBD5F5"/>
  <rect x="296" y="200" width="132" height="10" rx="5" fill="#CBD5F5"/>
  <rect x="296" y="238" width="96" height="28" rx="14" fill="#0EA5A5" fill-opacity="0.15"/>
  <rect x="406" y="238" width="68" height="28" rx="14" fill="#F59E0B" fill-opacity="0.18"/>
  <circle cx="444" cy="62" r="22" fill="#FFFFFF" fill-opacity="0.5"/>
  <circle cx="470" cy="46" r="10" fill="#0EA5A5" fill-opacity="0.35"/>
  <defs>
    <linearGradient id="paint0_linear" x1="40" y1="0" x2="480" y2="360" gradientUnits="userSpaceOnUse">
      <stop stop-color="#E0F7F5"/>
      <stop offset="0.5" stop-color="#EFF5FF"/>
      <stop offset="1" stop-color="#F8FAFC"/>
    </linearGradient>
  </defs>
</svg>
